# xmcd
#
# Track frame offsets:
#	150
#	18728
#	46297
#	64203
#	85664
#	102891
#	122145
#	138257
#	187741
#	208261
#	229534
#	249128
#	260137
#
# Disc length: 4397 seconds
#
# Revision: 0
# Processed by: cddbd v1.5.2PL0 Copyright (c) Steve Scherf et al.
# Submitted via: EZCDAudioConverter 1.3.4.1
#
DISCID=ae112b0d
DTITLE=Lenny Kravitz - Are You Gonna Go My Way 2/2
DYEAR=2013
DGENRE=
TTITLE0=Believe [Acoustic]
TTITLE1=Sister [Acoustic]
TTITLE2=Heaven Help [Acoustic]
TTITLE3=Work Like The Devil
TTITLE4=Feeling Alright [Instrumental]
TTITLE5=Getting Out (Will You Marry Me)
TTITLE6=Good Lovin'
TTITLE7=Blood - Papa (A Long And Sad Goodbye) [Instrumental]
TTITLE8=Early Morning Blues [Instrumental]
TTITLE9=I May Not Be A Star (Light Piece For Vanessa)
TTITLE10=Travelogue (Your Love Has Got A Handle On My Mind)
TTITLE11=Lonely Rainbows
TTITLE12=BBC Interview With Mick Wilkojc
EXTD=
EXTT0=
EXTT1=
EXTT2=
EXTT3=
EXTT4=
EXTT5=
EXTT6=
EXTT7=
EXTT8=
EXTT9=
EXTT10=
EXTT11=
EXTT12=
PLAYORDER=
